<?xml version="1.0" encoding="UTF-8" standalone="no"?>
<svg
   xmlns:dc="http://purl.org/dc/elements/1.1/"
   xmlns:cc="http://creativecommons.org/ns#"
   xmlns:rdf="http://www.w3.org/1999/02/22-rdf-syntax-ns#"
   xmlns:svg="http://www.w3.org/2000/svg"
   xmlns="http://www.w3.org/2000/svg"
   xmlns:sodipodi="http://sodipodi.sourceforge.net/DTD/sodipodi-0.dtd"
   xmlns:inkscape="http://www.inkscape.org/namespaces/inkscape"
   version="1.1"
   id="Layer_1"
   x="0px"
   y="0px"
   width="290.11899"
   height="290.44501"
   viewBox="78.492 0 290.119 290.44501"
   enable-background="new 78.492 0 290.119 512"
   xml:space="preserve"
   sodipodi:docname="01n.svg"
   inkscape:version="1.0.1 (3bc2e813f5, 2020-09-07)"><metadata
   id="metadata9"><rdf:RDF><cc:Work
       rdf:about=""><dc:format>image/svg+xml</dc:format><dc:type
         rdf:resource="http://purl.org/dc/dcmitype/StillImage" /><dc:title></dc:title></cc:Work></rdf:RDF></metadata><defs
   id="defs7" /><sodipodi:namedview
   pagecolor="#ffffff"
   bordercolor="#666666"
   borderopacity="1"
   objecttolerance="10"
   gridtolerance="10"
   guidetolerance="10"
   inkscape:pageopacity="0"
   inkscape:pageshadow="2"
   inkscape:window-width="1440"
   inkscape:window-height="837"
   id="namedview5"
   showgrid="false"
   fit-margin-top="0"
   fit-margin-left="0"
   fit-margin-right="0"
   fit-margin-bottom="0"
   inkscape:zoom="1.3476562"
   inkscape:cx="145.05949"
   inkscape:cy="115.87084"
   inkscape:window-x="3832"
   inkscape:window-y="-8"
   inkscape:window-maximized="1"
   inkscape:current-layer="Layer_1" />
<path
   d="m 247.093,19.279 c 59.37,11.145 104.435,63.375 104.435,125.932 0,70.666 -57.485,128.149 -128.134,128.149 -58.002,0 -107.044,-38.355 -122.719,-91.636 11.946,3.937 24.492,5.963 37.297,5.963 65.944,0 119.591,-53.656 119.591,-119.6 -10e-4,-16.95 -3.622,-33.559 -10.47,-48.808 M 223.393,0 c -2.887,0 -5.706,0.267 -8.542,0.434 15.899,18.052 25.627,41.693 25.627,67.654 0,56.609 -45.891,102.516 -102.507,102.516 -22.198,0 -42.694,-7.133 -59.479,-19.129 3.304,77.281 66.812,138.97 144.901,138.97 80.208,0 145.218,-65.024 145.218,-145.233 C 368.61,65.002 303.602,0 223.393,0 Z"
   id="path2" />
</svg>
