<?xml version="1.0" encoding="UTF-8" standalone="no"?>
<svg
   xmlns:dc="http://purl.org/dc/elements/1.1/"
   xmlns:cc="http://creativecommons.org/ns#"
   xmlns:rdf="http://www.w3.org/1999/02/22-rdf-syntax-ns#"
   xmlns:svg="http://www.w3.org/2000/svg"
   xmlns="http://www.w3.org/2000/svg"
   xmlns:sodipodi="http://sodipodi.sourceforge.net/DTD/sodipodi-0.dtd"
   xmlns:inkscape="http://www.inkscape.org/namespaces/inkscape"
   version="1.1"
   id="Layer_1"
   x="0px"
   y="0px"
   width="427.11301"
   height="427.11301"
   viewBox="9.996 0 427.11301 427.11301"
   enable-background="new 9.996 0 427.112 512"
   xml:space="preserve"
   sodipodi:docname="02n.svg"
   inkscape:version="1.0.1 (3bc2e813f5, 2020-09-07)"><metadata
   id="metadata9"><rdf:RDF><cc:Work
       rdf:about=""><dc:format>image/svg+xml</dc:format><dc:type
         rdf:resource="http://purl.org/dc/dcmitype/StillImage" /><dc:title></dc:title></cc:Work></rdf:RDF></metadata><defs
   id="defs7" /><sodipodi:namedview
   pagecolor="#ffffff"
   bordercolor="#666666"
   borderopacity="1"
   objecttolerance="10"
   gridtolerance="10"
   guidetolerance="10"
   inkscape:pageopacity="0"
   inkscape:pageshadow="2"
   inkscape:window-width="1440"
   inkscape:window-height="837"
   id="namedview5"
   showgrid="false"
   fit-margin-top="0"
   fit-margin-left="0"
   fit-margin-right="0"
   fit-margin-bottom="0"
   inkscape:zoom="0.47646844"
   inkscape:cx="675.94947"
   inkscape:cy="225.23366"
   inkscape:window-x="3832"
   inkscape:window-y="-8"
   inkscape:window-maximized="1"
   inkscape:current-layer="Layer_1" />
<path
   d="m 364.598,221.216 c -12.337,-57.594 -63.49,-100.798 -124.763,-100.798 -15.366,0 -30.081,2.736 -43.721,7.725 -8.108,-43.636997 -46.165,-76.712997 -92.154,-76.712997 -3.529,0 -6.998996,0.234 -10.435996,0.609 6.356,9.502 10.068996,20.914 10.068996,33.193 0,33.017997 -26.768996,59.795997 -59.794996,59.795997 -12.288,0 -23.691,-3.712 -33.193,-10.069 -0.375,3.429 -0.6090005,6.907 -0.6090005,10.436 0,31.708 15.7580005,59.688 39.8160005,76.705 -14.124,16.291 -22.732,37.488 -22.732,60.747 0,51.11 41.31,92.562 92.362996,92.813 v 0.023 h 239.241 v -0.049 c 0.359,0.008 0.7,0.049 1.061,0.049 42.719,0 77.364,-34.628 77.364,-77.363 -0.002,-41.083 -32.068,-74.583 -72.511,-77.104 z M 28.590004,160.602 c 4.971,1.001 10.061,1.51 15.208,1.51 42.394,0 76.879996,-34.486 76.879996,-76.879997 0,-5.147 -0.509,-10.235 -1.51,-15.208 31.892,6.432 56.626,32.666997 60.939,65.259997 -23.174,12.338 -42.094,31.6 -54.006,55.033 -2.061,-0.134 -4.104,-0.309 -6.189,-0.309 -21.672996,0 -41.560996,7.482 -57.359996,19.937 -17.186,-11.053 -29.782,-28.646 -33.962,-49.343 z M 360.085,358.601 c -0.324,-0.025 -0.658,-0.033 -1.001,-0.041 L 341.6,358.201 v 0.4 H 124.598 l -5.072,-0.025 c -41.551996,-0.198 -75.361996,-34.177 -75.361996,-75.729 0,-41.769 33.977,-75.755 75.745996,-75.755 1.285,0 2.552,0.101 3.82,0.184 l 1.269,0.092 11.228,0.725 5.105,-10.026 c 18.995,-37.356 56.743,-60.563 98.503,-60.563 51.778,0 97.218,36.713 108.062,87.292 l 2.712,12.664 12.931,0.809 c 31.675,1.977 56.482,28.354 56.482,60.055 0,33.124 -26.852,60.086 -59.937,60.277 z"
   id="path2" />
<rect
   style="opacity:0.944563;fill:none;stroke-width:4.31391;stroke-linecap:round;stroke-linejoin:round;stroke-miterlimit:4.2;stroke-opacity:0.843137;paint-order:stroke fill markers;stop-color:#000000"
   id="rect11"
   width="427.11301"
   height="427.11301"
   x="9.9960003"
   y="0" /></svg>
