<?xml version="1.0" encoding="UTF-8" standalone="no"?>
<svg
   xmlns:dc="http://purl.org/dc/elements/1.1/"
   xmlns:cc="http://creativecommons.org/ns#"
   xmlns:rdf="http://www.w3.org/1999/02/22-rdf-syntax-ns#"
   xmlns:svg="http://www.w3.org/2000/svg"
   xmlns="http://www.w3.org/2000/svg"
   xmlns:xlink="http://www.w3.org/1999/xlink"
   xmlns:sodipodi="http://sodipodi.sourceforge.net/DTD/sodipodi-0.dtd"
   xmlns:inkscape="http://www.inkscape.org/namespaces/inkscape"
   version="1.1"
   id="Layer_1"
   x="0px"
   y="0px"
   width="495.452"
   height="495.452"
   viewBox="-24.174 0 495.452 495.452"
   enable-background="new -24.174 0 495.452 512"
   xml:space="preserve"
   sodipodi:docname="10d.svg"
   inkscape:version="1.0.1 (3bc2e813f5, 2020-09-07)"><metadata
   id="metadata31"><rdf:RDF><cc:Work
       rdf:about=""><dc:format>image/svg+xml</dc:format><dc:type
         rdf:resource="http://purl.org/dc/dcmitype/StillImage" /><dc:title></dc:title></cc:Work></rdf:RDF></metadata><defs
   id="defs29" /><sodipodi:namedview
   pagecolor="#ffffff"
   bordercolor="#666666"
   borderopacity="1"
   objecttolerance="10"
   gridtolerance="10"
   guidetolerance="10"
   inkscape:pageopacity="0"
   inkscape:pageshadow="2"
   inkscape:window-width="1920"
   inkscape:window-height="1017"
   id="namedview27"
   showgrid="false"
   inkscape:zoom="0.67382813"
   inkscape:cx="-51.237221"
   inkscape:cy="243.06214"
   inkscape:window-x="1912"
   inkscape:window-y="-8"
   inkscape:window-maximized="1"
   inkscape:current-layer="Layer_1" />
<g
   id="g24"
   transform="translate(0,-7.9404955)">
	<rect
   x="138.129"
   y="8.4829998"
   width="17.084"
   height="68.105003"
   id="rect2" />
	<rect
   x="-24.174"
   y="170.052"
   width="68.103996"
   height="17.084"
   id="rect4" />
	
		<rect
   x="15.746"
   y="73.810997"
   transform="matrix(-0.7071,-0.7071,0.7071,-0.7071,26.7897,175.7999)"
   width="68.116997"
   height="17.082001"
   id="rect6" />
	
		<rect
   x="233.64101"
   y="48.339001"
   transform="matrix(-0.7071,-0.7071,0.7071,-0.7071,355.1703,311.8906)"
   width="17.080999"
   height="68.093002"
   id="rect8" />
	<rect
   x="257.72101"
   y="357.63199"
   width="17.084"
   height="59.796001"
   id="rect10" />
	<rect
   x="326.05801"
   y="323.46301"
   width="17.084999"
   height="59.794998"
   id="rect12" />
	<rect
   x="189.382"
   y="323.46301"
   width="17.084999"
   height="59.794998"
   id="rect14" />
	<rect
   x="257.72101"
   y="443.05399"
   width="17.084"
   height="59.796001"
   id="rect16" />
	<rect
   x="326.05801"
   y="408.88501"
   width="17.084999"
   height="59.796001"
   id="rect18" />
	<rect
   x="189.382"
   y="408.88501"
   width="17.084999"
   height="59.796001"
   id="rect20" />
	<path
   d="m 398.768,228.788 c -12.339,-57.593 -63.49,-100.797 -124.765,-100.797 -18.661,0 -36.369,4.013 -52.329,11.22 -14.24,-27.354 -42.77,-46.072 -75.737,-46.072 -47.174,0 -85.422,38.239 -85.422,85.414 0,21.013 7.683,40.167 20.271,55.032 -12.205,15.717 -19.537,35.396 -19.537,56.835 0,51.111 41.31,92.562 92.363,92.814 v 0.022 h 10.144 V 366.172 H 157.6 l -3.904,-0.024 C 112.144,365.95 78.334,331.97 78.334,290.419 c 0,-41.769 33.977,-75.755 75.746,-75.755 1.284,0 2.552,0.101 3.82,0.192 l 1.269,0.083 11.228,0.725 5.097,-10.035 c 19.003,-37.348 56.751,-60.554 98.51,-60.554 51.781,0 97.229,36.713 108.056,87.291 l 2.721,12.671 12.929,0.801 c 31.676,1.969 56.484,28.355 56.484,60.055 0,33.127 -26.854,60.098 -59.938,60.279 -0.359,-0.025 -0.676,-0.041 -1.001,-0.041 l -17.485,0.041 h -6.999 v 17.084 h 24.085 v -0.049 c 0.357,0.008 0.699,0.049 1.059,0.049 42.721,0 77.364,-34.628 77.364,-77.363 -0.003,-41.082 -32.07,-74.585 -72.511,-77.105 z M 160.269,197.89 c -2.061,-0.134 -4.104,-0.309 -6.189,-0.309 -23.625,0 -45.122,8.893 -61.506,23.433 -9.327,-11.67 -14.975,-26.395 -14.975,-42.461 0,-37.672 30.657,-68.33 68.338,-68.33 26.402,0 49.201,15.149 60.571,37.115 -19.628,12.303 -35.687,29.796 -46.239,50.552 z"
   id="path22" />
</g>
<use
   x="0"
   y="0"
   xlink:href="#g24"
   id="use33"
   width="100%"
   height="100%" /></svg>
