<?xml version="1.0" encoding="UTF-8" standalone="no"?>
<svg
   xmlns:dc="http://purl.org/dc/elements/1.1/"
   xmlns:cc="http://creativecommons.org/ns#"
   xmlns:rdf="http://www.w3.org/1999/02/22-rdf-syntax-ns#"
   xmlns:svg="http://www.w3.org/2000/svg"
   xmlns="http://www.w3.org/2000/svg"
   xmlns:sodipodi="http://sodipodi.sourceforge.net/DTD/sodipodi-0.dtd"
   xmlns:inkscape="http://www.inkscape.org/namespaces/inkscape"
   version="1.1"
   id="Layer_1"
   x="0px"
   y="0px"
   width="443.84601"
   height="443.84601"
   viewBox="9.996 0 443.84599 443.84601"
   enable-background="new 9.996 0 427.114 512"
   xml:space="preserve"
   sodipodi:docname="10n.svg"
   inkscape:version="1.0.1 (3bc2e813f5, 2020-09-07)"><metadata
   id="metadata23"><rdf:RDF><cc:Work
       rdf:about=""><dc:format>image/svg+xml</dc:format><dc:type
         rdf:resource="http://purl.org/dc/dcmitype/StillImage" /><dc:title></dc:title></cc:Work></rdf:RDF></metadata><defs
   id="defs21" /><sodipodi:namedview
   pagecolor="#ffffff"
   bordercolor="#666666"
   borderopacity="1"
   objecttolerance="10"
   gridtolerance="10"
   guidetolerance="10"
   inkscape:pageopacity="0"
   inkscape:pageshadow="2"
   inkscape:window-width="1920"
   inkscape:window-height="1017"
   id="namedview19"
   showgrid="false"
   inkscape:zoom="0.95293687"
   inkscape:cx="79.180325"
   inkscape:cy="263.99132"
   inkscape:window-x="1912"
   inkscape:window-y="-8"
   inkscape:window-maximized="1"
   inkscape:current-layer="Layer_1" />
<g
   id="g16"
   transform="translate(8.3650042,-33.744)">
	<rect
   x="223.55099"
   y="332.37201"
   width="17.084999"
   height="59.796001"
   id="rect2" />
	<rect
   x="291.88901"
   y="298.203"
   width="17.086"
   height="59.796001"
   id="rect4" />
	<rect
   x="155.213"
   y="298.203"
   width="17.084999"
   height="59.796001"
   id="rect6" />
	<rect
   x="223.55099"
   y="417.79401"
   width="17.084999"
   height="59.796001"
   id="rect8" />
	<rect
   x="291.88901"
   y="383.625"
   width="17.086"
   height="59.796001"
   id="rect10" />
	<rect
   x="155.213"
   y="383.625"
   width="17.084999"
   height="59.796001"
   id="rect12" />
	<path
   d="m 364.598,203.528 c -12.337,-57.593 -63.49,-100.796 -124.763,-100.796 -15.366,0 -30.09,2.736 -43.721,7.725 -8.108,-43.637 -46.165,-76.713 -92.154,-76.713 -3.529,0 -6.999,0.234 -10.436,0.609 6.356,9.502 10.069,20.914 10.069,33.193 0,33.018 -26.769,59.796 -59.795,59.796 -12.288,0 -23.691,-3.712 -33.193,-10.069 -0.375,3.429 -0.609,6.907 -0.609,10.436 0,31.708 15.758,59.687 39.816,76.705 -14.123,16.292 -22.731,37.489 -22.731,60.747 0,51.112 41.31,92.563 92.363,92.815 V 358 h 10.144 v -17.085 h -6.156 l -3.904,-0.024 c -41.552,-0.199 -75.362,-34.178 -75.362,-75.729 0,-41.768 33.977,-75.754 75.746,-75.754 1.285,0 2.552,0.101 3.82,0.192 l 1.269,0.083 11.228,0.725 5.097,-10.035 c 19.003,-37.348 56.751,-60.555 98.511,-60.555 51.778,0 97.228,36.713 108.054,87.291 l 2.721,12.671 12.931,0.801 c 31.675,1.968 56.483,28.354 56.483,60.056 0,33.125 -26.854,60.095 -59.938,60.278 -0.358,-0.025 -0.675,-0.041 -1.001,-0.041 l -17.484,0.041 h -7 V 358 h 24.084 v -0.05 c 0.359,0.008 0.7,0.05 1.061,0.05 42.719,0 77.364,-34.629 77.364,-77.363 -0.005,-41.088 -32.071,-74.589 -72.514,-77.109 z M 126.1,172.63 c -2.061,-0.134 -4.104,-0.309 -6.189,-0.309 -21.673,0 -41.561,7.483 -57.36,19.938 -17.185,-11.053 -29.789,-28.647 -33.96,-49.343 4.971,1.001 10.061,1.51 15.208,1.51 42.394,0 76.88,-34.486 76.88,-76.881 0,-5.147 -0.509,-10.235 -1.51,-15.207 31.892,6.432 56.626,32.667 60.93,65.259 -23.159,12.338 -42.078,31.6 -53.999,55.033 z"
   id="path14" />
</g>
</svg>
