<?xml version="1.0" encoding="UTF-8" standalone="no"?>
<svg
   xmlns:dc="http://purl.org/dc/elements/1.1/"
   xmlns:cc="http://creativecommons.org/ns#"
   xmlns:rdf="http://www.w3.org/1999/02/22-rdf-syntax-ns#"
   xmlns:svg="http://www.w3.org/2000/svg"
   xmlns="http://www.w3.org/2000/svg"
   xmlns:sodipodi="http://sodipodi.sourceforge.net/DTD/sodipodi-0.dtd"
   xmlns:inkscape="http://www.inkscape.org/namespaces/inkscape"
   version="1.1"
   id="Layer_1"
   x="0px"
   y="0px"
   width="452.73801"
   height="452.73901"
   viewBox="-2.819 0 452.738 452.73901"
   enable-background="new -2.819 0 452.738 512"
   xml:space="preserve"
   sodipodi:docname="11d.svg"
   inkscape:version="1.0.1 (3bc2e813f5, 2020-09-07)"><metadata
   id="metadata13"><rdf:RDF><cc:Work
       rdf:about=""><dc:format>image/svg+xml</dc:format><dc:type
         rdf:resource="http://purl.org/dc/dcmitype/StillImage" /><dc:title></dc:title></cc:Work></rdf:RDF></metadata><defs
   id="defs11" /><sodipodi:namedview
   pagecolor="#ffffff"
   bordercolor="#666666"
   borderopacity="1"
   objecttolerance="10"
   gridtolerance="10"
   guidetolerance="10"
   inkscape:pageopacity="0"
   inkscape:pageshadow="2"
   inkscape:window-width="1920"
   inkscape:window-height="1017"
   id="namedview9"
   showgrid="false"
   inkscape:zoom="1.3476562"
   inkscape:cx="226.369"
   inkscape:cy="256"
   inkscape:window-x="1912"
   inkscape:window-y="-8"
   inkscape:window-maximized="1"
   inkscape:current-layer="Layer_1" />
<g
   id="g6"
   transform="translate(-4.967041e-4,-29.297993)">
	<path
   d="M 369.862,183.308 C 356.231,119.708 299.757,72.009 232.101,72.009 c -54.866,0 -102.308,31.416 -125.589,77.18 -2.27,-0.15 -4.529,-0.342 -6.832,-0.342 -56.609,0 -102.499,45.89 -102.499,102.507 0,56.442 45.614,102.207 101.981,102.49 v 0.025 h 51.779 v -17.085 h -47.875 l -3.821,-0.025 c -46.857,-0.233 -84.98,-38.548 -84.98,-85.405 0,-47.099 38.314,-85.422 85.414,-85.422 1.493,0 2.961,0.117 4.438,0.217 l 1.268,0.084 11.245,0.75 5.106,-10.043 c 21.289,-41.852 63.583,-67.846 110.366,-67.846 58.002,0 108.912,41.126 121.059,97.793 l 2.712,12.663 12.931,0.81 c 35.903,2.236 64.033,32.142 64.033,68.088 0,37.563 -30.458,68.137 -67.973,68.337 -0.424,-0.025 -0.793,-0.041 -1.167,-0.059 l -43.078,0.059 h 1.167 v 17.085 h 41.544 v -0.06 c 0.393,0.01 0.776,0.06 1.169,0.06 47.164,0 85.421,-38.24 85.421,-85.422 0,-45.365 -35.403,-82.363 -80.058,-85.14 z"
   id="path2" />
	<polygon
   points="270.975,353.902 216.186,275.646 202.195,285.447 238.167,336.818 223.042,336.818 202.195,336.818 213.057,352.334 222.559,365.907 273.62,439.326 287.618,429.531 236.557,356.104 235.014,353.902 250.129,353.902 253.809,353.902 "
   id="polygon4" />
</g>
</svg>
