<?xml version="1.0" encoding="UTF-8" standalone="no"?>
<svg
   xmlns:dc="http://purl.org/dc/elements/1.1/"
   xmlns:cc="http://creativecommons.org/ns#"
   xmlns:rdf="http://www.w3.org/1999/02/22-rdf-syntax-ns#"
   xmlns:svg="http://www.w3.org/2000/svg"
   xmlns="http://www.w3.org/2000/svg"
   xmlns:sodipodi="http://sodipodi.sourceforge.net/DTD/sodipodi-0.dtd"
   xmlns:inkscape="http://www.inkscape.org/namespaces/inkscape"
   version="1.1"
   id="Layer_1"
   x="0px"
   y="0px"
   width="444.19699"
   height="444.19699"
   viewBox="1.453 0 444.197 444.19699"
   enable-background="new 1.453 0 444.197 512"
   xml:space="preserve"
   sodipodi:docname="01d.svg"
   inkscape:version="1.0.1 (3bc2e813f5, 2020-09-07)"><metadata
   id="metadata27"><rdf:RDF><cc:Work
       rdf:about=""><dc:format>image/svg+xml</dc:format><dc:type
         rdf:resource="http://purl.org/dc/dcmitype/StillImage" /><dc:title></dc:title></cc:Work></rdf:RDF></metadata><defs
   id="defs25" /><sodipodi:namedview
   pagecolor="#ffffff"
   bordercolor="#666666"
   borderopacity="1"
   objecttolerance="10"
   gridtolerance="10"
   guidetolerance="10"
   inkscape:pageopacity="0"
   inkscape:pageshadow="2"
   inkscape:window-width="1440"
   inkscape:window-height="837"
   id="namedview23"
   showgrid="false"
   fit-margin-top="0"
   fit-margin-left="0"
   fit-margin-right="0"
   fit-margin-bottom="0"
   inkscape:zoom="1.3476562"
   inkscape:cx="222.0985"
   inkscape:cy="222.432"
   inkscape:window-x="3832"
   inkscape:window-y="-8"
   inkscape:window-maximized="1"
   inkscape:current-layer="Layer_1" />
<g
   id="g20"
   transform="translate(5.0544739e-8,-33.568001)">
	<path
   d="m 223.551,144.567 c -61.331,0 -111.049,49.71 -111.049,111.041 0,61.339 49.719,111.065 111.049,111.065 61.33,0 111.049,-49.726 111.049,-111.065 0,-61.331 -49.718,-111.041 -111.049,-111.041 z m 0,205.023 c -51.812,0 -93.965,-42.16 -93.965,-93.981 0,-51.805 42.152,-93.957 93.965,-93.957 51.812,0 93.965,42.152 93.965,93.957 10e-4,51.821 -42.153,93.981 -93.965,93.981 z"
   id="path2" />
	<rect
   x="214.951"
   y="33.568001"
   width="17.084"
   height="85.421997"
   id="rect4" />
	<rect
   x="214.951"
   y="392.34299"
   width="17.084"
   height="85.421997"
   id="rect6" />
	<rect
   x="1.4529999"
   y="247.125"
   width="85.363998"
   height="17.084"
   id="rect8" />
	<rect
   x="360.168"
   y="247.125"
   width="85.482002"
   height="17.084"
   id="rect10" />
	
		<rect
   x="340.53201"
   y="85.546997"
   transform="matrix(-0.7071,-0.7071,0.7071,-0.7071,503.9698,468.7683)"
   width="17.080999"
   height="88.917"
   id="rect12" />
	<rect
   x="89.321999"
   y="336.78799"
   transform="matrix(0.707,0.7072,-0.7072,0.707,298.296,42.4937)"
   width="17.084"
   height="88.922997"
   id="rect14" />
	
		<rect
   x="53.424999"
   y="121.514"
   transform="matrix(-0.7071,-0.7071,0.7071,-0.7071,75.1333,291.2311)"
   width="88.916"
   height="17.082001"
   id="rect16" />
	<rect
   x="304.608"
   y="372.73999"
   transform="matrix(0.7072,0.707,-0.707,0.7072,371.7704,-135.158)"
   width="88.924004"
   height="17.082001"
   id="rect18" />
</g>
</svg>
