<?xml version="1.0" encoding="UTF-8" standalone="no"?>
<svg
   xmlns:dc="http://purl.org/dc/elements/1.1/"
   xmlns:cc="http://creativecommons.org/ns#"
   xmlns:rdf="http://www.w3.org/1999/02/22-rdf-syntax-ns#"
   xmlns:svg="http://www.w3.org/2000/svg"
   xmlns="http://www.w3.org/2000/svg"
   xmlns:sodipodi="http://sodipodi.sourceforge.net/DTD/sodipodi-0.dtd"
   xmlns:inkscape="http://www.inkscape.org/namespaces/inkscape"
   version="1.1"
   id="Layer_1"
   x="0px"
   y="0px"
   width="495.452"
   height="495.453"
   viewBox="-24.174 0 495.452 495.453"
   enable-background="new -24.174 0 495.452 512"
   xml:space="preserve"
   sodipodi:docname="13d.svg"
   inkscape:version="1.0.1 (3bc2e813f5, 2020-09-07)"><metadata
   id="metadata25"><rdf:RDF><cc:Work
       rdf:about=""><dc:format>image/svg+xml</dc:format><dc:type
         rdf:resource="http://purl.org/dc/dcmitype/StillImage" /><dc:title></dc:title></cc:Work></rdf:RDF></metadata><defs
   id="defs23" /><sodipodi:namedview
   pagecolor="#ffffff"
   bordercolor="#666666"
   borderopacity="1"
   objecttolerance="10"
   gridtolerance="10"
   guidetolerance="10"
   inkscape:pageopacity="0"
   inkscape:pageshadow="2"
   inkscape:window-width="1920"
   inkscape:window-height="1017"
   id="namedview21"
   showgrid="false"
   inkscape:zoom="0.67382813"
   inkscape:cx="69.909561"
   inkscape:cy="305.5315"
   inkscape:window-x="1912"
   inkscape:window-y="-8"
   inkscape:window-maximized="1"
   inkscape:current-layer="Layer_1" />
<g
   id="g18"
   transform="translate(0,-7.9394983)">
	<rect
   x="138.129"
   y="25.559999"
   width="17.084"
   height="68.103996"
   id="rect2" />
	<rect
   x="-24.174"
   y="187.129"
   width="68.103996"
   height="17.084"
   id="rect4" />
	
		<rect
   x="15.746"
   y="90.886002"
   transform="matrix(-0.7071,-0.7071,0.7071,-0.7071,14.7152,204.9502)"
   width="68.116997"
   height="17.083"
   id="rect6" />
	
		<rect
   x="233.64"
   y="65.415001"
   transform="matrix(-0.7071,-0.7071,0.7071,-0.7071,343.0936,341.0419)"
   width="17.080999"
   height="68.094002"
   id="rect8" />
	<path
   d="m 398.768,245.864 c -12.339,-57.593 -63.49,-100.796 -124.765,-100.796 -18.661,0 -36.369,4.021 -52.337,11.229 -14.231,-27.362 -42.761,-46.082 -75.729,-46.082 -47.174,0 -85.422,38.24 -85.422,85.415 0,21.013 7.683,40.166 20.271,55.032 -12.196,15.718 -19.537,35.396 -19.537,56.834 0,51.111 41.31,92.562 92.363,92.813 v 0.023 h 10.144 V 383.25 H 157.6 l -3.904,-0.025 c -41.552,-0.199 -75.362,-34.176 -75.362,-75.729 0,-41.768 33.977,-75.753 75.746,-75.753 1.284,0 2.552,0.1 3.82,0.191 l 1.269,0.084 11.228,0.726 5.097,-10.036 c 19.003,-37.347 56.751,-60.554 98.51,-60.554 51.781,0 97.229,36.714 108.056,87.291 l 2.721,12.673 12.929,0.8 c 31.676,1.971 56.484,28.354 56.484,60.055 0,33.127 -26.854,60.096 -59.938,60.279 -0.36,-0.025 -0.676,-0.041 -1.001,-0.041 l -15.941,0.041 v 17.083 h 15.541 v -0.048 c 0.358,0.007 0.7,0.048 1.06,0.048 42.721,0 77.364,-34.627 77.364,-77.362 -0.003,-41.087 -32.07,-74.589 -72.511,-77.109 z M 160.269,214.965 c -2.061,-0.133 -4.104,-0.308 -6.189,-0.308 -23.625,0 -45.122,8.892 -61.506,23.424 -9.327,-11.662 -14.975,-26.386 -14.975,-42.452 0,-37.673 30.657,-68.33 68.338,-68.33 26.411,0 49.201,15.149 60.571,37.122 -19.628,12.296 -35.678,29.79 -46.239,50.544 z"
   id="path10" />
	<polygon
   points="242.045,379.939 247.902,369.511 226.805,357.641 247.902,345.77 242.045,335.342 223.485,345.786 223.485,323.621 206.4,323.621 206.4,346.16 187.172,335.342 181.316,345.77 202.413,357.641 181.316,369.511 187.172,379.939 206.4,369.118 206.4,391.959 223.485,391.959 223.485,369.494 "
   id="polygon12" />
	<polygon
   points="249.02,417.436 231.934,417.436 231.934,439.977 212.707,429.155 206.85,439.582 227.947,451.455 206.85,463.326 212.707,473.753 231.934,462.934 231.934,485.772 249.02,485.772 249.02,463.308 267.58,473.753 273.438,463.326 252.339,451.455 273.438,439.582 267.58,429.155 249.02,439.6 "
   id="polygon14" />
	<polygon
   points="326.032,357.789 308.949,357.789 308.949,380.33 289.721,369.511 283.864,379.939 304.961,391.809 283.864,403.68 289.721,414.106 308.949,403.288 308.949,426.127 326.032,426.127 326.032,403.662 344.594,414.106 350.45,403.68 329.353,391.809 350.45,379.939 344.594,369.511 326.032,379.955 "
   id="polygon16" />
</g>
</svg>
