<?xml version="1.0" encoding="UTF-8" standalone="no"?>
<svg
   xmlns:dc="http://purl.org/dc/elements/1.1/"
   xmlns:cc="http://creativecommons.org/ns#"
   xmlns:rdf="http://www.w3.org/1999/02/22-rdf-syntax-ns#"
   xmlns:svg="http://www.w3.org/2000/svg"
   xmlns="http://www.w3.org/2000/svg"
   xmlns:sodipodi="http://sodipodi.sourceforge.net/DTD/sodipodi-0.dtd"
   xmlns:inkscape="http://www.inkscape.org/namespaces/inkscape"
   version="1.1"
   id="Layer_1"
   x="0px"
   y="0px"
   width="427.11401"
   height="427.116"
   viewBox="9.996 0 427.114 427.116"
   enable-background="new 9.996 0 427.114 512"
   xml:space="preserve"
   sodipodi:docname="13n.svg"
   inkscape:version="1.0.1 (3bc2e813f5, 2020-09-07)"><metadata
   id="metadata17"><rdf:RDF><cc:Work
       rdf:about=""><dc:format>image/svg+xml</dc:format><dc:type
         rdf:resource="http://purl.org/dc/dcmitype/StillImage" /><dc:title></dc:title></cc:Work></rdf:RDF></metadata><defs
   id="defs15" /><sodipodi:namedview
   pagecolor="#ffffff"
   bordercolor="#666666"
   borderopacity="1"
   objecttolerance="10"
   gridtolerance="10"
   guidetolerance="10"
   inkscape:pageopacity="0"
   inkscape:pageshadow="2"
   inkscape:window-width="1920"
   inkscape:window-height="1017"
   id="namedview13"
   showgrid="false"
   inkscape:zoom="1.3476562"
   inkscape:cx="213.55701"
   inkscape:cy="256"
   inkscape:window-x="1912"
   inkscape:window-y="-8"
   inkscape:window-maximized="1"
   inkscape:current-layer="Layer_1" />
<g
   id="g10"
   transform="translate(0,-42.109001)">
	<path
   d="m 364.598,220.605 c -12.337,-57.594 -63.49,-100.796 -124.763,-100.796 -15.366,0 -30.09,2.736 -43.721,7.724 C 188.006,83.896 149.949,50.82 103.96,50.82 c -3.529,0 -6.999,0.234 -10.436,0.609 6.356,9.501 10.069,20.913 10.069,33.193 0,33.018 -26.769,59.795 -59.795,59.795 -12.288,0 -23.691,-3.712 -33.193,-10.069 -0.375,3.429 -0.609,6.907 -0.609,10.436 0,31.716 15.758,59.688 39.816,76.705 -14.123,16.292 -22.731,37.487 -22.731,60.745 0,51.113 41.31,92.563 92.363,92.814 v 0.025 h 10.144 V 357.99 h -6.156 l -3.904,-0.025 c -41.552,-0.199 -75.362,-34.176 -75.362,-75.729 0,-41.769 33.977,-75.753 75.746,-75.753 1.285,0 2.552,0.1 3.82,0.191 l 1.269,0.084 11.228,0.726 5.097,-10.036 c 19.003,-37.347 56.751,-60.555 98.511,-60.555 51.778,0 97.228,36.714 108.054,87.291 l 2.721,12.671 12.931,0.801 c 31.675,1.969 56.483,28.354 56.483,60.055 0,33.126 -26.854,60.096 -59.938,60.279 -0.358,-0.025 -0.675,-0.041 -1.001,-0.041 l -15.941,0.041 v 17.085 h 15.541 v -0.052 c 0.359,0.009 0.7,0.052 1.061,0.052 42.719,0 77.364,-34.63 77.364,-77.364 -0.005,-41.086 -32.071,-74.587 -72.514,-77.106 z M 126.1,189.706 c -2.061,-0.133 -4.104,-0.309 -6.189,-0.309 -21.673,0 -41.561,7.492 -57.36,19.938 -17.185,-11.054 -29.781,-28.646 -33.96,-49.343 4.971,1.001 10.061,1.51 15.208,1.51 42.394,0 76.88,-34.486 76.88,-76.88 0,-5.147 -0.509,-10.235 -1.51,-15.208 31.892,6.432 56.626,32.667 60.939,65.26 -23.176,12.337 -42.096,31.599 -54.008,55.032 z"
   id="path2" />
	<polygon
   points="208.26,354.68 214.116,344.251 193.02,332.38 214.116,320.509 208.26,310.082 189.7,320.525 189.7,298.361 172.615,298.361 172.615,320.902 153.387,310.082 147.531,320.509 168.627,332.38 147.531,344.251 153.387,354.68 172.615,343.857 172.615,366.699 189.7,366.699 189.7,344.232 "
   id="polygon4" />
	<polygon
   points="215.234,392.176 198.15,392.176 198.15,414.717 178.921,403.896 173.065,414.324 194.163,426.195 173.065,438.066 178.921,448.493 198.15,437.674 198.15,460.514 215.234,460.514 215.234,438.049 233.795,448.493 239.652,438.066 218.554,426.195 239.652,414.324 233.795,403.896 215.234,414.34 "
   id="polygon6" />
	<polygon
   points="292.249,332.531 275.164,332.531 275.164,355.07 255.936,344.251 250.079,354.68 271.176,366.549 250.079,378.42 255.936,388.848 275.164,378.027 275.164,400.869 292.249,400.869 292.249,378.404 310.809,388.848 316.665,378.42 295.566,366.549 316.665,354.68 310.809,344.251 292.249,354.695 "
   id="polygon8" />
</g>
</svg>
