<?xml version="1.0" encoding="UTF-8" standalone="no"?>
<svg
   xmlns:dc="http://purl.org/dc/elements/1.1/"
   xmlns:cc="http://creativecommons.org/ns#"
   xmlns:rdf="http://www.w3.org/1999/02/22-rdf-syntax-ns#"
   xmlns:svg="http://www.w3.org/2000/svg"
   xmlns="http://www.w3.org/2000/svg"
   xmlns:sodipodi="http://sodipodi.sourceforge.net/DTD/sodipodi-0.dtd"
   xmlns:inkscape="http://www.inkscape.org/namespaces/inkscape"
   version="1.1"
   id="Layer_1"
   x="0px"
   y="0px"
   width="503.992"
   height="503.992"
   viewBox="-28.445 0 503.992 503.992"
   enable-background="new -28.445 0 503.992 512"
   xml:space="preserve"
   sodipodi:docname="50d.svg"
   inkscape:version="1.0.1 (3bc2e813f5, 2020-09-07)"><metadata
   id="metadata27"><rdf:RDF><cc:Work
       rdf:about=""><dc:format>image/svg+xml</dc:format><dc:type
         rdf:resource="http://purl.org/dc/dcmitype/StillImage" /><dc:title></dc:title></cc:Work></rdf:RDF></metadata><defs
   id="defs25" /><sodipodi:namedview
   pagecolor="#ffffff"
   bordercolor="#666666"
   borderopacity="1"
   objecttolerance="10"
   gridtolerance="10"
   guidetolerance="10"
   inkscape:pageopacity="0"
   inkscape:pageshadow="2"
   inkscape:window-width="1920"
   inkscape:window-height="1017"
   id="namedview23"
   showgrid="false"
   inkscape:zoom="1.3476562"
   inkscape:cx="251.996"
   inkscape:cy="256"
   inkscape:window-x="1912"
   inkscape:window-y="-8"
   inkscape:window-maximized="1"
   inkscape:current-layer="Layer_1" />
<g
   id="g20"
   transform="translate(0,-3.6749935)">
	<rect
   x="133.858"
   y="55.466"
   width="17.084"
   height="68.103996"
   id="rect2" />
	<rect
   x="-28.445"
   y="217.035"
   width="68.103996"
   height="17.084"
   id="rect4" />
	
		<rect
   x="11.475"
   y="120.792"
   transform="matrix(-0.7071,-0.7071,0.7071,-0.7071,-13.7219,252.9837)"
   width="68.116997"
   height="17.083"
   id="rect6" />
	
		<rect
   x="229.39"
   y="95.314003"
   transform="matrix(-0.7071,-0.7071,0.7071,-0.7071,314.6959,389.0777)"
   width="17.080999"
   height="68.094002"
   id="rect8" />
	<rect
   x="48.435001"
   y="344.82599"
   width="427.112"
   height="17.084"
   id="rect10" />
	<rect
   x="82.603996"
   y="396.07999"
   width="375.858"
   height="17.084"
   id="rect12" />
	<rect
   x="133.858"
   y="438.79199"
   width="256.26599"
   height="17.084"
   id="rect14" />
	<rect
   x="65.519997"
   y="293.57199"
   width="392.94199"
   height="17.087"
   id="rect16" />
	<path
   d="m 73.278,276.488 h 6.59 16.459 8.643 c 12.571,-9.284 28.046,-14.842 44.838,-14.842 1.284,0 2.552,0.101 3.82,0.193 l 1.268,0.082 11.229,0.727 5.097,-10.037 c 19.003,-37.346 56.75,-60.555 98.51,-60.555 50.787,0 95.399,35.354 107.312,84.429 h 17.451 v -0.717 C 382.157,218.174 331.004,174.972 269.731,174.972 c -18.662,0 -36.371,4.012 -52.33,11.22 -14.24,-27.354 -42.77,-46.074 -75.738,-46.074 -47.174,0 -85.422,38.241 -85.422,85.414 0.003,19.148 6.393,36.734 17.037,50.956 z m 68.388,-119.282 c 26.403,0 49.202,15.149 60.572,37.113 -19.628,12.305 -35.687,29.797 -46.24,50.553 -2.061,-0.134 -4.104,-0.309 -6.189,-0.309 -23.608,0 -45.056,8.926 -61.415,23.449 -9.368,-11.67 -15.065,-26.386 -15.065,-42.478 -10e-4,-37.672 30.656,-68.328 68.337,-68.328 z"
   id="path18" />
</g>
</svg>
