<?xml version="1.0" encoding="UTF-8" standalone="no"?>
<svg
   xmlns:dc="http://purl.org/dc/elements/1.1/"
   xmlns:cc="http://creativecommons.org/ns#"
   xmlns:rdf="http://www.w3.org/1999/02/22-rdf-syntax-ns#"
   xmlns:svg="http://www.w3.org/2000/svg"
   xmlns="http://www.w3.org/2000/svg"
   xmlns:sodipodi="http://sodipodi.sourceforge.net/DTD/sodipodi-0.dtd"
   xmlns:inkscape="http://www.inkscape.org/namespaces/inkscape"
   version="1.1"
   id="Layer_1"
   x="0px"
   y="0px"
   width="435.65601"
   height="435.65601"
   viewBox="5.723 0 435.656 435.65601"
   enable-background="new 5.723 0 435.656 512"
   xml:space="preserve"
   sodipodi:docname="50n.svg"
   inkscape:version="1.0.1 (3bc2e813f5, 2020-09-07)"><metadata
   id="metadata19"><rdf:RDF><cc:Work
       rdf:about=""><dc:format>image/svg+xml</dc:format><dc:type
         rdf:resource="http://purl.org/dc/dcmitype/StillImage" /><dc:title></dc:title></cc:Work></rdf:RDF></metadata><defs
   id="defs17" /><sodipodi:namedview
   pagecolor="#ffffff"
   bordercolor="#666666"
   borderopacity="1"
   objecttolerance="10"
   gridtolerance="10"
   guidetolerance="10"
   inkscape:pageopacity="0"
   inkscape:pageshadow="2"
   inkscape:window-width="1920"
   inkscape:window-height="1017"
   id="namedview15"
   showgrid="false"
   inkscape:zoom="1.3476562"
   inkscape:cx="217.828"
   inkscape:cy="256"
   inkscape:window-x="1912"
   inkscape:window-y="-8"
   inkscape:window-maximized="1"
   inkscape:current-layer="Layer_1" />
<g
   id="g12"
   transform="translate(0,-37.842494)">
	<rect
   x="14.267"
   y="319.60001"
   width="427.112"
   height="17.086"
   id="rect2" />
	<rect
   x="48.435001"
   y="370.854"
   width="375.85901"
   height="17.084"
   id="rect4" />
	<rect
   x="99.689003"
   y="413.564"
   width="256.267"
   height="17.084999"
   id="rect6" />
	<rect
   x="31.351"
   y="268.34799"
   width="392.94299"
   height="17.084"
   id="rect8" />
	<path
   d="m 45.382,251.262 h 0.316 16.093 9.009 c 12.571,-9.285 28.046,-14.84 44.838,-14.84 1.285,0 2.553,0.1 3.821,0.191 l 1.268,0.083 11.229,0.727 5.096,-10.036 c 19.003,-37.347 56.751,-60.554 98.511,-60.554 50.787,0 95.4,35.353 107.312,84.429 h 17.451 v -0.717 c -12.337,-57.593 -63.49,-100.797 -124.764,-100.797 -15.366,0 -30.082,2.736 -43.711,7.716 -8.075,-43.662 -46.148,-76.772 -92.163,-76.772 -3.529,0 -6.999,0.234 -10.437,0.61 6.357,9.501 10.069,20.913 10.069,33.192 0,33.018 -26.769,59.795 -59.795,59.795 -12.288,0 -23.691,-3.712 -33.193,-10.068 -0.375,3.428 -0.609,6.907 -0.609,10.436 0.001,31.641 15.684,59.578 39.659,76.605 z m -5.856,-59.887 c 42.394,0 76.88,-34.487 76.88,-76.881 0,-5.147 -0.509,-10.235 -1.51,-15.207 31.909,6.431 56.66,32.701 60.939,65.326 -23.166,12.33 -42.085,31.6 -54.006,55.033 -2.061,-0.133 -4.104,-0.309 -6.19,-0.309 -21.648,0 -41.477,7.508 -57.243,19.946 -17.251,-11.045 -29.897,-28.671 -34.077,-49.418 4.971,1 10.06,1.51 15.207,1.51 z"
   id="path10" />
</g>
</svg>
